<svg xmlns="http://www.w3.org/2000/svg" xmlns:xlink="http://www.w3.org/1999/xlink" width="68" height="104"><style><![CDATA[.B{fill:#147853}.C{fill-rule:nonzero}.D{fill:#2CC28C}]]></style><defs><filter x="-12.5%" y="-7.9%" width="125.0%" height="115.8%" id="A"><feOffset dx="-1" dy="2" in="SourceAlpha"/><feGaussianBlur stdDeviation="1"/><feColorMatrix values="0 0 0 0 0.137254902 0 0 0 0 0.17254902 0 0 0 0 0.231372549 0 0 0 0.44 0" result="C"/><feMerge><feMergeNode in="C"/><feMergeNode in="SourceGraphic"/></feMerge></filter><linearGradient x1="77.8233159%" y1="60.6217007%" x2="7.71274654%" y2="60.6217007%" id="B"><stop stop-color="#fff" offset="0%"/><stop stop-color="#E9E9E9" offset="100%"/></linearGradient><linearGradient x1="61.0891845%" y1="23.7460678%" x2="5.5802239%" y2="250.3345%" id="C"><stop stop-color="#fff" offset="0%"/><stop stop-color="#E6E6E6" offset="100%"/></linearGradient><linearGradient x1="105.138449%" y1="-138.267491%" x2="85.0421984%" y2="100%" id="D"><stop stop-color="#7C818A" offset="0%"/><stop stop-color="#464A52" offset="100%"/></linearGradient><path id="E" d="M0 6.426V0h1.98v6.426H0zm7.065-3.312h-1.62a.45.45 0 0 0-.207-.351.62.62 0 0 0-.396-.135c-.252 0-.54.054-.54.36 0 .135.108.198.207.243.297.126.972.162 1.566.36.594.19 1.116.54 1.116 1.305 0 1.296-1.242 1.647-2.376 1.647-1.098 0-2.304-.44-2.33-1.647h1.7c.01.162.08.297.216.414.1.08.26.135.477.135.234 0 .603-.1.603-.36s-.153-.35-.98-.495c-1.36-.234-1.908-.666-1.908-1.467 0-1.18 1.27-1.485 2.205-1.485 1.008 0 2.223.28 2.268 1.476zm4.94 0h-1.62a.45.45 0 0 0-.207-.351.62.62 0 0 0-.396-.135c-.252 0-.54.054-.54.36 0 .135.108.198.207.243.297.126.972.162 1.566.36.594.19 1.116.54 1.116 1.305 0 1.296-1.242 1.647-2.376 1.647-1.098 0-2.304-.44-2.33-1.647h1.7c.01.162.08.297.216.414.1.08.26.135.477.135.234 0 .603-.1.603-.36s-.153-.35-.98-.495c-1.36-.234-1.908-.666-1.908-1.467 0-1.18 1.27-1.485 2.205-1.485 1.008 0 2.223.28 2.268 1.476zm5.48-1.36v4.67h-1.72v-.594h-.018c-.333.468-.8.71-1.52.71-.837 0-1.602-.513-1.602-1.584V1.755h1.782v2.448c0 .54.063.918.585.918.306 0 .71-.153.71-.9V1.755h1.782zm2.26 1.81h1.7c0-.432-.324-.783-.783-.783-.53 0-.837.28-.918.783zm3.41.927h-3.42c.045.53.35.91.91.91.288 0 .603-.108.747-.333h1.665c-.36 1.008-1.34 1.476-2.403 1.476-1.494 0-2.62-.882-2.62-2.44 0-1.36 1-2.466 2.466-2.466 1.854 0 2.655 1.035 2.655 2.853zm.55 1.935V0h1.98v2.232h1.854V0h1.98v6.426h-1.98V3.88h-1.854v2.547h-1.98zm11.44-4.67v4.67h-1.72v-.594h-.018c-.333.468-.8.71-1.52.71-.837 0-1.602-.513-1.602-1.584V1.755h1.782v2.448c0 .54.063.918.585.918.306 0 .71-.153.71-.9V1.755h1.782zm.747 4.67v-4.67h1.72v.594h.018c.333-.468.8-.71 1.52-.71.837 0 1.602.513 1.602 1.584v3.204H38.97V3.978c0-.54-.063-.918-.585-.918-.306 0-.71.153-.71.9v2.466h-1.782zM43.64.333v1.422h.954v1.098h-.954v1.63c0 .432.1.62.55.62a3.06 3.06 0 0 0 .405-.027v1.35l-1.143.054c-.756 0-1.593-.117-1.593-1.395V2.853h-.792V1.755h.792V.333h1.782z"/></defs><g fill="none"><g filter="url(#A)" transform="translate(3)"><g transform="matrix(1 0 0 -1 0 100.16967)"><g fill="#000"><path d="M0 36.623L63.17 0v26.077L0 63.17z"/></g><g fill="url(#B)"><path d="M0 36.623L63.17 0v26.077L0 63.17z"/></g></g><g class="B C"><path d="M47.08 76.708l-.663.256 2.34 6.06.664-.255-2.34-6.062zm-1.85-.826l2.004-.774a.72.72 0 0 1 .929.412l2.858 7.403a.72.72 0 0 1-.411.929l-2.004.773a.72.72 0 0 1-.929-.411l-2.857-7.402a.72.72 0 0 1 .411-.929z"/></g><g class="D"><path d="M37.97 85.53l-3.042-1.764a23.1 23.1 0 0 1-4.998-14.386l.003-.404c1.096 3.67 3.405 6.566 6.3 8.164a23.19 23.19 0 0 0 1.736 8.389z"/><g class="C"><path d="M36.087 58.153l2.728 1.602-.125-.014-2.878-.418a9.14 9.14 0 0 1 .275-1.17zm-2.02 5.406c.092-.44.303-.935.658-1.485 0 0 1.013 1.636 8.466.977-.12.164-.232.334-.33.512a3.99 3.99 0 0 1-.616.832c-5.913.506-7.706-.448-8.18-.835z"/></g></g><g class="B C"><path d="M35.645 57.893l1.658.974a11.19 11.19 0 0 0-.473 1.294l1.61.323.144-.864.38.223-.113.708 1.66.2 3.486 2.047c-1.395 2.992-3.582 4.33-5.57 4.56-1.04.12-2.033-.065-2.85-.48-.863-.437-1.534-1.13-1.873-1.997-.495-1.265-.284-2.85 1.076-4.466.108-.47.365-1.438.862-2.522zm6.226 4.84c-2.377-.017-4.766-.528-5.846-.792-.644.88-.76 1.658-.53 2.243.162.415.504.757.948.983.493.25 1.11.36 1.767.284 1.245-.144 2.622-.952 3.66-2.718z"/><path d="M44.896 63.326l4.333 2.544a5.02 5.02 0 0 1 .649 2.467c0 1.39-.565 2.652-1.476 3.563s-2.172 1.476-3.563 1.476a5.04 5.04 0 0 1-2.51-.674 5.05 5.05 0 0 1-1.519-1.342l-.634 1.563a.96.96 0 0 1-1.227.582c-.04-.014-.076-.03-.112-.05l-.002-.001c-.056-.028-.108-.06-.155-.1l-.003-.002-.015-.012-.003-.002-.015-.012-.003-.003-.017-.016-.014-.013-.003-.003-.013-.013-.004-.003-.013-.013-.003-.004-.012-.013-.003-.003-.013-.014-.003-.004-.026-.032-.003-.004-.002-.002-.05-.072V73.113l-.01-.018-.001-.001-.01-.02c-.027-.046-.05-.096-.068-.148l-.003-.006-.005-.015-.003-.008-.257-.728c-.236.2-.49.38-.757.533a5.04 5.04 0 0 1-2.51.674 5.03 5.03 0 0 1-1.833-.344 12.13 12.13 0 0 0 2.177 2.254c1.817 1.442 4 2.262 6.295 2.262 2.434 0 4.73-.92 6.603-2.515 1.865-1.59 3.316-3.847 4.076-6.537v-.91l1.923 1.13V91.597l.5-.026 1.433-.14a.96.96 0 0 1 1.074.826.96.96 0 0 1-.826 1.074l-1.56.154-1.56.053a24.21 24.21 0 0 1-1.413-.041l-4.73-2.74a22.22 22.22 0 0 0 5.169.838V73.2c-.795 1.264-1.752 2.373-2.83 3.29-2.22 1.89-4.95 2.982-7.85 2.982a11.63 11.63 0 0 1-4.197-.789c.113 1.26.333 2.51.658 3.736.358 1.35.843 2.667 1.45 3.93l-6.487-3.76c-2.483-3.796-3.927-8.333-3.927-13.207a24.22 24.22 0 0 1 .269-3.589l.006-.032c.137-.91.328-1.812.572-2.708a17.08 17.08 0 0 0-.62-.291c-1.186-.202-2.218-.81-2.962-1.67-.77-.9-1.232-2.047-1.232-3.296 0-.03.002-.062.005-.092l-.002-.057c0-.056.004-.1.014-.163l.001-.007V57.46l.002-.006a.96.96 0 0 1 .961-.787c.063.001.125.01.185.02 1.05.022 5.934.268 9.48 2.855.427.31.52.91.2 1.336s-.9.52-1.336.2c-2.482-1.812-5.797-2.3-7.48-2.432a3.11 3.11 0 0 0 .639 1.182c.475.548 1.143.933 1.9 1.043a.94.94 0 0 1 .314.102c.502.22.99.46 1.468.72.028.014.055.028.08.045l.004.002c1.797.995 3.405 2.27 4.768 3.767a18.72 18.72 0 0 1 3.065 4.56c1.18-2.41 2.755-4.44 4.596-5.98a15.4 15.4 0 0 1 1.009-.775zm-11.4 2.195c-.468.222-.865.552-1.164.954-.39.522-.614 1.17-.614 1.863a3.11 3.11 0 0 0 3.117 3.117c.56 0 1.096-.147 1.556-.41a3.11 3.11 0 0 0 .868-.741c-.668-1.268-1.493-2.44-2.45-3.49-.414-.454-.852-.885-1.312-1.29zm-2.1-.862a5.07 5.07 0 0 1 .482-.398l-.337-.225c-.05.207-.1.415-.145.624zm10.37 4.886c.153.08.285.204.378.365.28.48.676.868 1.14 1.135a3.12 3.12 0 0 0 1.556.411 3.11 3.11 0 0 0 3.117-3.117c0-.69-.225-1.34-.614-1.863s-.944-.925-1.603-1.123a.95.95 0 0 1-.223-.099 12.97 12.97 0 0 0-.397.319c-1.276 1.066-2.412 2.406-3.353 3.972zm-5.356 14.5c-.12-.376-.23-.754-.33-1.135a24.13 24.13 0 0 1-.786-5.205c-.45-.275-.888-.58-1.308-.914-.962-.763-1.838-1.676-2.597-2.714a22.17 22.17 0 0 0 5.022 9.968z"/></g><g class="D"><path d="M44.35 74.966l.68 1.764.458-.177 2.462-.95-.68-1.764z"/></g><g class="B"><path d="M33.223 69.45a.48.48 0 0 1-.122-.666 1.85 1.85 0 0 1 .599-.558c.24-.138.506-.212.78-.212.283 0 .558.08.805.226l.032.02a1.88 1.88 0 0 1 .577.575.48.48 0 0 1-.141.663.48.48 0 0 1-.663-.141c-.077-.12-.172-.215-.273-.28l-.02-.01c-.1-.058-.207-.1-.317-.1s-.2.03-.304.083c-.107.06-.206.152-.287.27a.48.48 0 0 1-.666.122z"/></g><g fill="#fff"><path d="M41.937 64.162c2.99-1.154 6.35.334 7.506 3.325s-.334 6.352-3.325 7.506-6.35-.334-7.506-3.325.334-6.352 3.325-7.506"/></g><path d="M44.35 74.966l.68 1.764.458-.177 2.462-.95-.68-1.764z" class="D"/><path d="M45.34 66.62c-.754-.333-1.635-.38-2.465-.065l-.03.01c-.825.323-1.443.95-1.776 1.702a3.23 3.23 0 0 0-.066 2.464l.01.03c.324.826.95 1.443 1.702 1.776.758.335 1.644.383 2.477.06a3.23 3.23 0 0 0 1.793-1.708c.335-.757.382-1.644.06-2.477s-.95-1.458-1.708-1.793zm-2.615-.45c.937-.358 1.932-.305 2.782.07a3.64 3.64 0 0 1 1.927 2.023c.362.94.3 1.94-.068 2.793a3.64 3.64 0 0 1-4.817 1.86 3.64 3.64 0 0 1-1.927-2.023l-.004-.012c-.358-.937-.304-1.932.072-2.782a3.64 3.64 0 0 1 2.023-1.927l.012-.004z" fill="#ccc" class="C"/><g class="D"><path d="M45.697 69.602c-.054 1.146-1.027 2.03-2.173 1.977s-2.03-1.026-1.977-2.172 1.027-2.03 2.173-1.977a2.08 2.08 0 0 1 1.977 2.173z"/></g><g class="B"><path d="M43.67 68.48c.566.027 1.003.507.977 1.074s-.507 1.003-1.073.977-1.004-.507-.977-1.074.507-1.003 1.073-.977"/></g><g fill="#fff"><path d="M44.207 68.504a.49.49 0 0 1 .466.512.49.49 0 0 1-.512.465.49.49 0 0 1-.466-.512.49.49 0 0 1 .512-.465"/></g><g class="B C"><path d="M45.697 65.81a4.11 4.11 0 0 0-3.153-.078h-.002a4.11 4.11 0 0 0-2.283 2.175c-.423.954-.486 2.07-.092 3.12a.43.43 0 0 1 .027.071c.414 1.042 1.21 1.826 2.162 2.248a4.11 4.11 0 0 0 3.119.092.55.55 0 0 1 .069-.027c1.044-.413 1.828-1.208 2.25-2.163.426-.96.486-2.086.082-3.143l-.005-.013a4.11 4.11 0 0 0-2.176-2.282zm-3.487-.976c1.305-.5 2.7-.427 3.874.098s2.177 1.507 2.682 2.815l.001.002c.505 1.31.433 2.7-.093 3.886a5.09 5.09 0 0 1-1.273 1.745c.14.04.258.142.314.287l.68 1.764a.48.48 0 0 1-.274.62l-2.92 1.127a.48.48 0 0 1-.62-.274l-.68-1.764a.48.48 0 0 1 .078-.479c-.7-.006-1.383-.157-2-.435-1.19-.526-2.178-1.507-2.683-2.816l-.006-.015a5.07 5.07 0 0 1 .099-3.873c.526-1.188 1.507-2.177 2.816-2.683l.013-.005zM45.304 76.1l2.026-.782-.336-.87-2.026.782.336.87z"/></g><g class="D"><path d="M46.245 82.896c0-4.3 1.822-7.726 5.907-9.012v17.7c-4.088-1.29-5.907-4.41-5.907-8.698z"/></g><g class="B"><path d="M54.03 92.556a.96.96 0 0 1-1.205.627c-2.24-.708-4.127-2.104-5.452-3.91s-2.09-4.025-2.09-6.376a10.78 10.78 0 0 1 7.551-10.289.96.96 0 0 1 1.202.631.96.96 0 0 1-.631 1.202 8.85 8.85 0 0 0-4.484 3.211 8.86 8.86 0 0 0-.002 10.488c1.087 1.482 2.637 2.63 4.483 3.212a.96.96 0 0 1 .627 1.205z"/></g><g fill="#000"><path d="M0 36.623L63.17 0v26.077L0 63.17z"/></g><g fill="url(#C)"><path d="M0 36.623L63.17 0v26.077L0 63.17z"/></g><g transform="matrix(.866025 -.5 .5 .866025 5.351548 42.587048)"><g fill="#000" class="C"><use xlink:href="#E"/></g><g fill="url(#D)"><use xlink:href="#E"/></g></g></g></g></svg>